{
    "asset" : {
        "generator" : "Khronos glTF Blender I/O v3.2.43",
        "version" : "2.0"
    },
    "extensionsUsed" : [
        "KHR_materials_transmission"
    ],
    "scene" : 0,
    "scenes" : [
        {
            "name" : "Scene",
            "nodes" : [
                0,
                1
            ]
        }
    ],
    "nodes" : [
        {
            "mesh" : 0,
            "name" : "goal"
        },
        {
            "mesh" : 1,
            "name" : "ball",
            "translation" : [
                -4.4405460357666016e-06,
                -0.001283407211303711,
                0
            ]
        }
    ],
    "materials" : [
        {
            "doubleSided" : true,
            "name" : "blue metal",
            "pbrMetallicRoughness" : {
                "baseColorFactor" : [
                    0,
                    0.0009042728343047202,
                    0.10223788022994995,
                    1
                ],
                "roughnessFactor" : 0.49090906977653503
            }
        },
        {
            "doubleSided" : true,
            "extensions" : {
                "KHR_materials_transmission" : {
                    "transmissionFactor" : 1
                }
            },
            "name" : "glass",
            "pbrMetallicRoughness" : {
                "baseColorFactor" : [
                    0.800000011920929,
                    0.800000011920929,
                    0.800000011920929,
                    1
                ],
                "metallicFactor" : 0,
                "roughnessFactor" : 0
            }
        },
        {
            "doubleSided" : true,
            "name" : "plastic",
            "pbrMetallicRoughness" : {
                "baseColorFactor" : [
                    0.012731724418699741,
                    0,
                    0.07023953646421432,
                    1
                ],
                "metallicFactor" : 0,
                "roughnessFactor" : 0.27272725105285645
            }
        },
        {
            "doubleSided" : true,
            "name" : "Material.004",
            "pbrMetallicRoughness" : {
                "baseColorFactor" : [
                    0.8000000715255737,
                    0.10121450573205948,
                    0.03520704060792923,
                    1
                ],
                "metallicFactor" : 0,
                "roughnessFactor" : 0.1090909093618393
            }
        },
        {
            "doubleSided" : true,
            "name" : "Material.003",
            "pbrMetallicRoughness" : {
                "baseColorFactor" : [
                    0.800000011920929,
                    0.800000011920929,
                    0.800000011920929,
                    1
                ],
                "metallicFactor" : 0,
                "roughnessFactor" : 0.19090908765792847
            }
        },
        {
            "doubleSided" : true,
            "name" : "Material.001",
            "pbrMetallicRoughness" : {
                "baseColorFactor" : [
                    0,
                    0,
                    0,
                    1
                ],
                "metallicFactor" : 0,
                "roughnessFactor" : 0.5
            }
        },
        {
            "doubleSided" : true,
            "name" : "Material.002",
            "pbrMetallicRoughness" : {
                "baseColorTexture" : {
                    "index" : 0
                },
                "metallicFactor" : 0,
                "roughnessFactor" : 0.5
            }
        }
    ],
    "meshes" : [
        {
            "name" : "Cube.001",
            "primitives" : [
                {
                    "attributes" : {
                        "POSITION" : 0,
                        "NORMAL" : 1,
                        "TEXCOORD_0" : 2
                    },
                    "indices" : 3,
                    "material" : 0
                },
                {
                    "attributes" : {
                        "POSITION" : 4,
                        "NORMAL" : 5,
                        "TEXCOORD_0" : 6
                    },
                    "indices" : 7,
                    "material" : 1
                },
                {
                    "attributes" : {
                        "POSITION" : 8,
                        "NORMAL" : 9,
                        "TEXCOORD_0" : 10
                    },
                    "indices" : 11,
                    "material" : 2
                },
                {
                    "attributes" : {
                        "POSITION" : 12,
                        "NORMAL" : 13,
                        "TEXCOORD_0" : 14
                    },
                    "indices" : 15,
                    "material" : 3
                },
                {
                    "attributes" : {
                        "POSITION" : 16,
                        "NORMAL" : 17,
                        "TEXCOORD_0" : 18
                    },
                    "indices" : 19,
                    "material" : 4
                }
            ]
        },
        {
            "name" : "Sphere",
            "primitives" : [
                {
                    "attributes" : {
                        "POSITION" : 20,
                        "NORMAL" : 21,
                        "TEXCOORD_0" : 22
                    },
                    "indices" : 23,
                    "material" : 5
                },
                {
                    "attributes" : {
                        "POSITION" : 24,
                        "NORMAL" : 25,
                        "TEXCOORD_0" : 26
                    },
                    "indices" : 27,
                    "material" : 6
                }
            ]
        }
    ],
    "textures" : [
        {
            "sampler" : 0,
            "source" : 0
        }
    ],
    "images" : [
        {
            "bufferView" : 28,
            "mimeType" : "image/jpeg",
            "name" : "basketball-texture-background-horizontal-shot-orange-55047680"
        }
    ],
    "accessors" : [
        {
            "bufferView" : 0,
            "componentType" : 5126,
            "count" : 345,
            "max" : [
                0.2180790901184082,
                0.9706235527992249,
                0.15898777544498444
            ],
            "min" : [
                -0.07911013811826706,
                0,
                -0.15898777544498444
            ],
            "type" : "VEC3"
        },
        {
            "bufferView" : 1,
            "componentType" : 5126,
            "count" : 345,
            "type" : "VEC3"
        },
        {
            "bufferView" : 2,
            "componentType" : 5126,
            "count" : 345,
            "type" : "VEC2"
        },
        {
            "bufferView" : 3,
            "componentType" : 5123,
            "count" : 1068,
            "type" : "SCALAR"
        },
        {
            "bufferView" : 4,
            "componentType" : 5126,
            "count" : 14,
            "max" : [
                0.2159288078546524,
                0.9679237604141235,
                0.1562880277633667
            ],
            "min" : [
                0.2159288078546524,
                0.7623046636581421,
                -0.1562880277633667
            ],
            "type" : "VEC3"
        },
        {
            "bufferView" : 5,
            "componentType" : 5126,
            "count" : 14,
            "type" : "VEC3"
        },
        {
            "bufferView" : 6,
            "componentType" : 5126,
            "count" : 14,
            "type" : "VEC2"
        },
        {
            "bufferView" : 7,
            "componentType" : 5123,
            "count" : 36,
            "type" : "SCALAR"
        },
        {
            "bufferView" : 8,
            "componentType" : 5126,
            "count" : 68,
            "max" : [
                0.21706171333789825,
                0.9683553576469421,
                0.17652404308319092
            ],
            "min" : [
                0.19737473130226135,
                0.7618731260299683,
                -0.17652404308319092
            ],
            "type" : "VEC3"
        },
        {
            "bufferView" : 9,
            "componentType" : 5126,
            "count" : 68,
            "type" : "VEC3"
        },
        {
            "bufferView" : 10,
            "componentType" : 5126,
            "count" : 68,
            "type" : "VEC2"
        },
        {
            "bufferView" : 11,
            "componentType" : 5123,
            "count" : 144,
            "type" : "SCALAR"
        },
        {
            "bufferView" : 12,
            "componentType" : 5126,
            "count" : 2127,
            "max" : [
                0.3209337592124939,
                0.7781617045402527,
                0.049004971981048584
            ],
            "min" : [
                0.20727333426475525,
                0.6697467565536499,
                -0.04900496453046799
            ],
            "type" : "VEC3"
        },
        {
            "bufferView" : 13,
            "componentType" : 5126,
            "count" : 2127,
            "type" : "VEC3"
        },
        {
            "bufferView" : 14,
            "componentType" : 5126,
            "count" : 2127,
            "type" : "VEC2"
        },
        {
            "bufferView" : 15,
            "componentType" : 5123,
            "count" : 7320,
            "type" : "SCALAR"
        },
        {
            "bufferView" : 16,
            "componentType" : 5126,
            "count" : 48,
            "max" : [
                0.2177417278289795,
                0.8711950778961182,
                0.0687941461801529
            ],
            "min" : [
                0.21574537456035614,
                0.7616238594055176,
                -0.0687941312789917
            ],
            "type" : "VEC3"
        },
        {
            "bufferView" : 17,
            "componentType" : 5126,
            "count" : 48,
            "type" : "VEC3"
        },
        {
            "bufferView" : 18,
            "componentType" : 5126,
            "count" : 48,
            "type" : "VEC2"
        },
        {
            "bufferView" : 19,
            "componentType" : 5123,
            "count" : 72,
            "type" : "SCALAR"
        },
        {
            "bufferView" : 20,
            "componentType" : 5126,
            "count" : 258,
            "max" : [
                0.31045475602149963,
                0.8165941834449768,
                0.03852560371160507
            ],
            "min" : [
                0.233402818441391,
                0.7397345900535583,
                -0.038525424897670746
            ],
            "type" : "VEC3"
        },
        {
            "bufferView" : 21,
            "componentType" : 5126,
            "count" : 258,
            "type" : "VEC3"
        },
        {
            "bufferView" : 22,
            "componentType" : 5126,
            "count" : 258,
            "type" : "VEC2"
        },
        {
            "bufferView" : 23,
            "componentType" : 5123,
            "count" : 468,
            "type" : "SCALAR"
        },
        {
            "bufferView" : 24,
            "componentType" : 5126,
            "count" : 2164,
            "max" : [
                0.31110867857933044,
                0.8172367811203003,
                0.03917946293950081
            ],
            "min" : [
                0.23274889588356018,
                0.7390866279602051,
                -0.03917933255434036
            ],
            "type" : "VEC3"
        },
        {
            "bufferView" : 25,
            "componentType" : 5126,
            "count" : 2164,
            "type" : "VEC3"
        },
        {
            "bufferView" : 26,
            "componentType" : 5126,
            "count" : 2164,
            "type" : "VEC2"
        },
        {
            "bufferView" : 27,
            "componentType" : 5123,
            "count" : 6528,
            "type" : "SCALAR"
        }
    ],
    "bufferViews" : [
        {
            "buffer" : 0,
            "byteLength" : 4140,
            "byteOffset" : 0
        },
        {
            "buffer" : 0,
            "byteLength" : 4140,
            "byteOffset" : 4140
        },
        {
            "buffer" : 0,
            "byteLength" : 2760,
            "byteOffset" : 8280
        },
        {
            "buffer" : 0,
            "byteLength" : 2136,
            "byteOffset" : 11040
        },
        {
            "buffer" : 0,
            "byteLength" : 168,
            "byteOffset" : 13176
        },
        {
            "buffer" : 0,
            "byteLength" : 168,
            "byteOffset" : 13344
        },
        {
            "buffer" : 0,
            "byteLength" : 112,
            "byteOffset" : 13512
        },
        {
            "buffer" : 0,
            "byteLength" : 72,
            "byteOffset" : 13624
        },
        {
            "buffer" : 0,
            "byteLength" : 816,
            "byteOffset" : 13696
        },
        {
            "buffer" : 0,
            "byteLength" : 816,
            "byteOffset" : 14512
        },
        {
            "buffer" : 0,
            "byteLength" : 544,
            "byteOffset" : 15328
        },
        {
            "buffer" : 0,
            "byteLength" : 288,
            "byteOffset" : 15872
        },
        {
            "buffer" : 0,
            "byteLength" : 25524,
            "byteOffset" : 16160
        },
        {
            "buffer" : 0,
            "byteLength" : 25524,
            "byteOffset" : 41684
        },
        {
            "buffer" : 0,
            "byteLength" : 17016,
            "byteOffset" : 67208
        },
        {
            "buffer" : 0,
            "byteLength" : 14640,
            "byteOffset" : 84224
        },
        {
            "buffer" : 0,
            "byteLength" : 576,
            "byteOffset" : 98864
        },
        {
            "buffer" : 0,
            "byteLength" : 576,
            "byteOffset" : 99440
        },
        {
            "buffer" : 0,
            "byteLength" : 384,
            "byteOffset" : 100016
        },
        {
            "buffer" : 0,
            "byteLength" : 144,
            "byteOffset" : 100400
        },
        {
            "buffer" : 0,
            "byteLength" : 3096,
            "byteOffset" : 100544
        },
        {
            "buffer" : 0,
            "byteLength" : 3096,
            "byteOffset" : 103640
        },
        {
            "buffer" : 0,
            "byteLength" : 2064,
            "byteOffset" : 106736
        },
        {
            "buffer" : 0,
            "byteLength" : 936,
            "byteOffset" : 108800
        },
        {
            "buffer" : 0,
            "byteLength" : 25968,
            "byteOffset" : 109736
        },
        {
            "buffer" : 0,
            "byteLength" : 25968,
            "byteOffset" : 135704
        },
        {
            "buffer" : 0,
            "byteLength" : 17312,
            "byteOffset" : 161672
        },
        {
            "buffer" : 0,
            "byteLength" : 13056,
            "byteOffset" : 178984
        },
        {
            "buffer" : 0,
            "byteLength" : 155267,
            "byteOffset" : 192040
        }
    ],
    "samplers" : [
        {
            "magFilter" : 9729,
            "minFilter" : 9987
        }
    ],
    "buffers" : [
        {
            "byteLength" : 347308,
            "uri" : "data:application/octet-stream;base64,"
        }
    ]
}
